<!-- E-ink adapted: removed all linearGradient definitions -->
<!-- Moon: teal gradient fill → blue, gradient stroke → black -->
<!-- Fog lines: white fill with black stroke for e-ink visibility on any background -->
<svg
  xmlns="http://www.w3.org/2000/svg"
  xmlns:xlink="http://www.w3.org/1999/xlink"
  viewBox="0 0 512 512"
>
  <defs>
    <symbol id="e" viewBox="0 0 270 270">
      <path
        fill="blue"
        stroke="black"
        stroke-linecap="round"
        stroke-linejoin="round"
        stroke-width="6"
        d="M252.3 168.6A133.4 133.4 0 01118 36.2 130.5 130.5 0 01122.5 3 133 133 0 003 134.6C3 207.7 63 267 137.2 267c62.5 0 114.8-42.2 129.8-99.2a135.6 135.6 0 01-14.8.8Z"
      />
    </symbol>
    <symbol id="f" viewBox="0 0 264 72" style="overflow:visible">
      <rect x="0" y="0" width="264" height="24" rx="12" ry="12"
        fill="white" stroke="black" stroke-width="4" />
      <rect x="0" y="48" width="264" height="24" rx="12" ry="12"
        fill="white" stroke="black" stroke-width="4" />
    </symbol>
    <clipPath id="d"><path fill="none" d="M0 0h512v306H0z" /></clipPath>
  </defs>
  <g clip-path="url(#d)">
    <use
      xlink:href="#e"
      width="270"
      height="270"
      transform="translate(121 121)"
    />
  </g>
  <use xlink:href="#f" width="264" height="72" transform="translate(124 336)" />
</svg>
