<svg
  xmlns="http://www.w3.org/2000/svg"
  xmlns:xlink="http://www.w3.org/1999/xlink"
  viewBox="0 0 512 512"
>
  <defs>
    <symbol id="b" viewBox="0 0 350 350">
      <path
        fill="blue"
        stroke="black"
        stroke-miterlimit="10"
        stroke-width="4"
        d="M82 3.6c-48.7 72-80 117-80 160.7s35.8 79.3 80 79.3 80-35.5 80-79.3S130.7 75.5 82 3.6Z"
      />
    </symbol>
  </defs>
  <g transform="translate(60 0)">
    <use
      xlink:href="#b"
      height="345"
      transform="translate(0 35)"
    />
    <use
      xlink:href="#b"
      height="145"
      transform="translate(103 35)"
    />
    <use
      xlink:href="#b"
      transform="translate(131.9 50)"
    />
  <path
    fill="white"
    transform="scale(1.4) translate(-75 -80)"
    d="M218.8 250.5q4.8-4.5 13.7-4.5t13.6 4.5q4.8 4.4 4.8 12.4v8q0 7.8-4.8 12.2t-13.6 4.4q-9 0-13.7-4.4t-4.8-12.2v-8q0-8 4.8-12.4Zm71.2-1.6a2.8 2.8 0 01-.6 2.6l-53 73.3a9.4 9.4 0 01-2.8 2.8 12.3 12.3 0 01-4.6.6h-4.4c-1.3 0-2.1-.4-2.5-1.1a2.8 2.8 0 01.7-2.8l53-73.3a7 7 0 012.6-2.7 12.7 12.7 0 014.4-.5h4.9c1.2 0 2 .4 2.3 1.1Zm-57.5 7.6q-7.7 0-7.7 7v6.7q0 7 7.7 7t7.7-7v-6.8q0-6.9-7.7-6.9Zm33.4 36.4q4.7-4.5 13.7-4.5t13.6 4.5q4.8 4.5 4.8 12.4v8q0 7.8-4.8 12.2t-13.7 4.5q-8.9 0-13.6-4.4t-4.8-12.3v-8q0-8 4.8-12.4Zm13.6 6.1q-7.6 0-7.6 7v6.6q0 7 7.6 7t7.7-7v-6.7q0-6.9-7.7-6.9Z"
  />
  </g>
</svg>
