<svg
  xmlns="http://www.w3.org/2000/svg"
  viewBox="0 0 512 512"
  xmlns:xlink="http://www.w3.org/1999/xlink"
>
  <defs>
    <!-- Sun symbol (#h), originally gradient + orange stroke, now solid orange fill + black stroke -->
    <symbol id="h" viewBox="0 0 196 196">
      <!-- Sun center -->
      <circle
        cx="98"
        cy="98"
        r="40"
        fill="yellow"
        stroke="black"
        stroke-miterlimit="10"
        stroke-width="4"
      />
      <!-- Sun rays -->
      <path
        fill="none"
        stroke="black"
        stroke-linecap="round"
        stroke-miterlimit="10"
        stroke-width="12"
        d="M98 31.4V6m0 184v-25.4
           M145.1 51l18-17.9
           M33 163l18-17.9
           M51 51 33 33
           m130.1 130.1-18-18
           M6 98h25.4
           M190 98h-25.4"
      />
    </symbol>

    <!-- Smaller cloud (#j), originally gradient + gray stroke, now white fill + black stroke -->
    <symbol id="j" viewBox="0 0 210.3 126.1">
      <path
        fill="white"
        stroke="black"
        stroke-miterlimit="10"
        stroke-width="6"
        d="M.5 93.2
           a32.4 32.4 0 0032.4 32.4
           h129.8v-.1l2.3.1
           a34.8 34.8 0 006.5-68.9
           32.4 32.4 0 00-48.5-33
           48.6 48.6 0 00-88.6 37.1
           h-1.5A32.4 32.4 0 00.5 93.1Z"
      />
    </symbol>

    <!-- Bigger cloud (#k), originally gradient fill + light stroke, now white fill + black stroke -->
    <symbol id="k" viewBox="0 0 350 222">
      <path
        fill="white"
        stroke="black"
        stroke-miterlimit="10"
        stroke-width="6"
        d="m291 107-2.5.1
           A83.9 83.9 0 00135.6 43
           A56 56 0 0051 91
           a56.6 56.6 0 00.8 9
           A60 60 0 0063 219
           l4-.2v.2h224
           a56 56 0 000-112Z"
      />
    </symbol>

    <!-- Combined clouds (#i) uses #j (small cloud) and #k (big cloud) -->
    <symbol id="i" viewBox="0 0 398 222">
      <use
        xlink:href="#j"
        width="200.3"
        height="126.1"
        transform="translate(198 27)"
      />
      <use
        xlink:href="#k"
        width="350"
        height="222"
      />
    </symbol>

    <!-- Weather icon (#g) references the sun (#h) and combined clouds (#i) -->
    <symbol id="g" viewBox="0 0 410.8 258">
      <!-- Sun -->
      <use
        xlink:href="#h"
        width="196"
        height="196"
      />
      <!-- Clouds, shifted down -->
      <use
        xlink:href="#i"
        width="398"
        height="222"
        transform="translate(12.84 36)"
      />
    </symbol>

    <!-- Three small circles (#l), originally gradient blues + stroke, now solid blue fill + black stroke -->
    <symbol id="l" viewBox="0 0 129 109">
      <path
        fill="blue"
        stroke="black"
        stroke-miterlimit="10"
        d="M8.5 28.5a8 8 0 01-8-8v-12a8 8 0 0116 0v12a8 8 0 01-8 8Z"
      />
      <path
        fill="blue"
        stroke="black"
        stroke-miterlimit="10"
        d="M64.5 108.5a8 8 0 01-8-8v-12a8 8 0 0116 0v12a8 8 0 01-8 8Z"
      />
      <path
        fill="blue"
        stroke="black"
        stroke-miterlimit="10"
        d="M120.5 58.5a8 8 0 01-8-8v-12a8 8 0 0116 0v12a8 8 0 01-8 8Z"
      />
    </symbol>
  </defs>

  <!-- Main usage of #g (sun + clouds) -->
  <use
    xlink:href="#g"
    width="410.8"
    height="258"
    transform="translate(56 109)"
  />

  <!-- Three small circles (#l), positioned at bottom -->
  <use
    xlink:href="#l"
    width="129"
    height="109"
    transform="translate(191.5 347.5)"
  />
</svg>
