<!-- E-ink adapted: removed all linearGradient definitions -->
<!-- Moon: teal gradient fill → blue, gradient stroke → black -->
<!-- Cloud: gradient fill → white, subtle stroke → black -->
<!-- Lightning bolt: gradient fill → yellow, stroke → black -->
<svg
  xmlns="http://www.w3.org/2000/svg"
  xmlns:xlink="http://www.w3.org/1999/xlink"
  viewBox="0 0 512 512"
>
  <defs>
    <symbol id="e" viewBox="0 0 172 172">
      <path
        fill="blue"
        stroke="black"
        stroke-linecap="round"
        stroke-linejoin="round"
        stroke-width="4"
        d="M160.6 107.4a84.8 84.8 0 01-85.4-84.3A83.3 83.3 0 0178 2 84.7 84.7 0 002 85.7 84.8 84.8 0 0087.4 170a85.2 85.2 0 0082.6-63.1 88 88 0 01-9.4.5Z"
      />
    </symbol>
    <symbol id="f" viewBox="0 0 350 222">
      <path
        fill="white"
        stroke="black"
        stroke-miterlimit="10"
        stroke-width="6"
        d="m291 107-2.5.1A83.9 83.9 0 00135.6 43 56 56 0 0051 91a56.6 56.6 0 00.8 9A60 60 0 0063 219l4-.2v.2h224a56 56 0 000-112Z"
      />
    </symbol>
    <symbol id="d" viewBox="0 0 351 246">
      <use xlink:href="#e" width="172" height="172" />
      <use
        xlink:href="#f"
        width="350"
        height="222"
        transform="translate(1 24)"
      />
    </symbol>
    <symbol id="g" viewBox="0 0 102.7 186.8">
      <path
        fill="yellow"
        stroke="black"
        stroke-miterlimit="10"
        stroke-width="4"
        d="m34.8 2-32 96h32l-16 80 80-112h-48l32-64h-48z"
      />
    </symbol>
  </defs>
  <use xlink:href="#d" width="351" height="246" transform="translate(80 121)" />
  <use
    xlink:href="#g"
    width="102.7"
    height="186.7"
    transform="translate(205.23 291)"
  />
</svg>
