<!-- E-ink adapted: removed all linearGradient definitions -->
<!-- Sun: gradient fill → yellow, gradient stroke → black, rays → yellow -->
<!-- Cloud: gradient fill → white, subtle stroke → black -->
<!-- Lightning bolt: gradient fill → yellow, stroke → black -->
<svg
  xmlns="http://www.w3.org/2000/svg"
  xmlns:xlink="http://www.w3.org/1999/xlink"
  viewBox="0 0 512 512"
>
  <defs>
    <symbol id="e" viewBox="0 0 196 196">
      <circle
        cx="98"
        cy="98"
        r="40"
        fill="yellow"
        stroke="black"
        stroke-miterlimit="10"
        stroke-width="4"
      />
      <path
        fill="none"
        stroke="yellow"
        stroke-linecap="round"
        stroke-miterlimit="10"
        stroke-width="12"
        d="M98 31.4V6m0 184v-25.4M145.1 51l18-17.9M33 163l18-17.9M51 51 33 33m130.1 130.1-18-18M6 98h25.4M190 98h-25.4"
      />
    </symbol>
    <symbol id="f" viewBox="0 0 350 222">
      <path
        fill="white"
        stroke="black"
        stroke-miterlimit="10"
        stroke-width="6"
        d="m291 107-2.5.1A83.9 83.9 0 00135.6 43 56 56 0 0051 91a56.6 56.6 0 00.8 9A60 60 0 0063 219l4-.2v.2h224a56 56 0 000-112Z"
      />
    </symbol>
    <symbol id="d" viewBox="0 0 363 258">
      <use xlink:href="#e" width="196" height="196" />
      <use
        xlink:href="#f"
        width="350"
        height="222"
        transform="translate(13 36)"
      />
    </symbol>
    <symbol id="g" viewBox="0 0 102.7 186.8">
      <path
        fill="yellow"
        stroke="black"
        stroke-miterlimit="10"
        stroke-width="4"
        d="m34.8 2-32 96h32l-16 80 80-112h-48l32-64h-48z"
      />
    </symbol>
  </defs>
  <use xlink:href="#d" width="363" height="258" transform="translate(68 109)" />
  <use
    xlink:href="#g"
    width="102.7"
    height="186.7"
    transform="translate(205.23 291)"
  />
</svg>
