<svg
  xmlns="http://www.w3.org/2000/svg"
  viewBox="0 0 512 512"
  xmlns:xlink="http://www.w3.org/1999/xlink"
>
  <defs>
    <!-- Keep the original clip path -->
    <clipPath id="b">
      <path
        fill="none"
        d="M64 64h384v192H328a72 72 0 00-72 72v120H64Z"
      />
    </clipPath>

    <!-- Symbol #c (originally a sun with gradient fill + orange stroke) -->
    <symbol id="c" viewBox="0 0 384 384">
      <!-- Sun circle: now solid orange + black stroke -->
      <circle
        cx="192"
        cy="192"
        r="84"
        fill="yellow"
        stroke="black"
        stroke-miterlimit="10"
        stroke-width="6"
      />
      <!-- Rays: originally #fbbf24, now black -->
      <path
        fill="none"
        stroke="black"
        stroke-linecap="round"
        stroke-miterlimit="10"
        stroke-width="24"
        d="M192 61.7V12
           m0 360v-49.7
           m92.2-222.5 35-35
           M64.8 319.2l35.1-35.1
           m0-184.4-35-35
           m254.5 254.5-35.1-35.1
           M61.7 192H12
           m360 0h-49.7"
      />
    </symbol>
  </defs>

  <!-- Group with clipping -->
  <g clip-path="url(#b)">
    <!-- Sun symbol usage -->
    <use
      xlink:href="#c"
      width="384"
      height="384"
      transform="translate(64 64)"
    />
    <!-- Stroke was "#f8af18", now black -->
    <path
      fill="none"
      stroke="black"
      stroke-miterlimit="10"
      stroke-width="6"
      d="M254 338v-10
         a74 74 0 0174-74h10"
    />
  </g>

  <!-- Path was fill="#374251", now black for e-ink style -->
  <path
    fill="black"
    d="M337.7 388q-14.4 0-22.1-6.8t-7.8-19.3V316h18.3v46
       q0 11 11.7 11t11.6-11v-46h18.3v45.9
       q0 12.7-7.8 19.4t-22.2 6.7Zm75.7-43.5 8.2-28.5h18.6l-22.6 69.8
       h-19.4L375.8 316h18.8l8.2 28.4 5.4 22Z"
  />
</svg>
